<?xml version="1.0"?>
<svg xmlns="http://www.w3.org/2000/svg" xmlns:xlink="http://www.w3.org/1999/xlink" xmlns:svgjs="http://svgjs.com/svgjs" version="1.1" width="512" height="512" x="0" y="0" viewBox="0 0 512 512" style="enable-background:new 0 0 512 512" xml:space="preserve" class=""><g><g xmlns="http://www.w3.org/2000/svg"><path d="m386.125 331.849v-109.25c.468.006.935.018 1.405.018 60.281 0 109.324-49.043 109.324-109.324s-49.043-109.324-109.324-109.324c-37.755 0-71.099 19.239-90.75 48.427-.701-29.009-24.499-52.396-53.674-52.396-29.614 0-53.707 24.093-53.707 53.707 0 11.4 3.581 21.974 9.663 30.678-57.374 18.616-98.974 72.571-98.974 136.069v111.394c0 46.838-38.105 84.942-84.941 84.942v29.977h143.788c4.161 16.188 12.921 30.915 25.445 42.396 16.064 14.727 36.92 22.837 58.726 22.837s42.662-8.11 58.726-22.836c12.524-11.48 21.285-26.208 25.445-42.396h143.788v-29.977c-46.836 0-84.94-38.105-84.94-84.942zm-29.978-23.48h-226.082v-56.678h226.082zm110.729-195.076c0 43.752-35.595 79.347-79.347 79.347-17.208 0-33.141-5.524-46.156-14.867l110.636-110.637c9.344 13.016 14.867 28.949 14.867 46.157zm-79.346-79.347c15.728 0 30.388 4.619 42.733 12.543l-109.537 109.537c-7.925-12.345-12.543-27.006-12.543-42.733 0-43.752 35.595-79.347 79.347-79.347zm-168.154 19.761c0-13.085 10.645-23.73 23.73-23.73s23.73 10.645 23.73 23.73c0 13.084-10.645 23.729-23.73 23.729s-23.73-10.645-23.73-23.729zm23.73 53.707c12.058 0 23.825 1.872 35.104 5.558 0 .107-.004.214-.004.321 0 49.377 32.908 91.206 77.942 104.726v3.695h-226.083v-1.26c0-62.33 50.71-113.04 113.041-113.04zm38.469 359.652c-10.521 9.645-24.183 14.956-38.469 14.956s-27.948-5.311-38.469-14.956c-6.234-5.714-11.039-12.653-14.191-20.298h105.319c-3.151 7.645-7.956 14.584-14.19 20.298zm-189.106-50.275c21.588-19.669 35.671-47.435 37.408-78.444h226.458c1.737 31.01 15.821 58.775 37.408 78.444z" fill="#4f5d73" data-original="#000000" style="" class=""/></g></g></svg>
